<mxfile host="Electron" agent="Mozilla/5.0 (Windows NT 10.0; Win64; x64) AppleWebKit/537.36 (KHTML, like Gecko) draw.io/26.2.2 Chrome/134.0.6998.178 Electron/35.1.2 Safari/537.36" version="26.2.2">
  <diagram id="C5RBs43oDa-KdzZeNtuy" name="Page-1">
    <mxGraphModel dx="2255" dy="841" grid="1" gridSize="10" guides="1" tooltips="1" connect="1" arrows="1" fold="1" page="1" pageScale="1" pageWidth="827" pageHeight="1169" math="0" shadow="0">
      <root>
        <mxCell id="WIyWlLk6GJQsqaUBKTNV-0" />
        <mxCell id="WIyWlLk6GJQsqaUBKTNV-1" parent="WIyWlLk6GJQsqaUBKTNV-0" />
        <mxCell id="eDhgWXMWfAPKys8gNTX1-6" value="Ordine" style="swimlane;fontStyle=1;align=center;verticalAlign=top;childLayout=stackLayout;horizontal=1;startSize=26;horizontalStack=0;resizeParent=1;resizeParentMax=0;resizeLast=0;collapsible=1;marginBottom=0;whiteSpace=wrap;html=1;" parent="WIyWlLk6GJQsqaUBKTNV-1" vertex="1">
          <mxGeometry x="40" y="370" width="180" height="286" as="geometry" />
        </mxCell>
        <mxCell id="eDhgWXMWfAPKys8gNTX1-7" value="- ID_track: string&lt;div&gt;- statoOrdine: int&lt;/div&gt;" style="text;strokeColor=none;fillColor=none;align=left;verticalAlign=top;spacingLeft=4;spacingRight=4;overflow=hidden;rotatable=0;points=[[0,0.5],[1,0.5]];portConstraint=eastwest;whiteSpace=wrap;html=1;" parent="eDhgWXMWfAPKys8gNTX1-6" vertex="1">
          <mxGeometry y="26" width="180" height="84" as="geometry" />
        </mxCell>
        <mxCell id="eDhgWXMWfAPKys8gNTX1-8" value="" style="line;strokeWidth=1;fillColor=none;align=left;verticalAlign=middle;spacingTop=-1;spacingLeft=3;spacingRight=3;rotatable=0;labelPosition=right;points=[];portConstraint=eastwest;strokeColor=inherit;" parent="eDhgWXMWfAPKys8gNTX1-6" vertex="1">
          <mxGeometry y="110" width="180" height="8" as="geometry" />
        </mxCell>
        <mxCell id="eDhgWXMWfAPKys8gNTX1-9" value="+ getID_track(): string&lt;div&gt;+ getDettagli(): string&lt;/div&gt;&lt;div&gt;+ getStatoOrdine(): int&lt;/div&gt;&lt;div&gt;+ getStatoOrdineString(): string&lt;/div&gt;&lt;div&gt;+ setStatoOrdine(int)&lt;/div&gt;&lt;div&gt;+ setID_track(string)&lt;/div&gt;&lt;div&gt;+ getListaArticoli(): ArticoliDellOrdine&lt;/div&gt;&lt;div&gt;&lt;br&gt;&lt;/div&gt;&lt;div&gt;&lt;br&gt;&lt;div&gt;&lt;br&gt;&lt;/div&gt;&lt;/div&gt;" style="text;strokeColor=none;fillColor=none;align=left;verticalAlign=top;spacingLeft=4;spacingRight=4;overflow=hidden;rotatable=0;points=[[0,0.5],[1,0.5]];portConstraint=eastwest;whiteSpace=wrap;html=1;" parent="eDhgWXMWfAPKys8gNTX1-6" vertex="1">
          <mxGeometry y="118" width="180" height="168" as="geometry" />
        </mxCell>
        <mxCell id="eDhgWXMWfAPKys8gNTX1-10" value="" style="endArrow=block;endSize=16;endFill=0;html=1;rounded=0;" parent="WIyWlLk6GJQsqaUBKTNV-1" edge="1">
          <mxGeometry x="-0.125" y="-70" width="160" relative="1" as="geometry">
            <mxPoint x="124" y="700" as="sourcePoint" />
            <mxPoint x="124" y="658" as="targetPoint" />
            <Array as="points" />
            <mxPoint as="offset" />
          </mxGeometry>
        </mxCell>
        <mxCell id="eDhgWXMWfAPKys8gNTX1-19" value="" style="endArrow=none;html=1;rounded=0;" parent="WIyWlLk6GJQsqaUBKTNV-1" edge="1">
          <mxGeometry width="50" height="50" relative="1" as="geometry">
            <mxPoint x="-10" y="700" as="sourcePoint" />
            <mxPoint x="250" y="700" as="targetPoint" />
          </mxGeometry>
        </mxCell>
        <mxCell id="eDhgWXMWfAPKys8gNTX1-20" value="" style="endArrow=none;html=1;rounded=0;exitX=0.5;exitY=0;exitDx=0;exitDy=0;" parent="WIyWlLk6GJQsqaUBKTNV-1" edge="1">
          <mxGeometry width="50" height="50" relative="1" as="geometry">
            <mxPoint x="-10" y="750" as="sourcePoint" />
            <mxPoint x="-10" y="700" as="targetPoint" />
          </mxGeometry>
        </mxCell>
        <mxCell id="eDhgWXMWfAPKys8gNTX1-21" value="Ordine_Uscita" style="swimlane;fontStyle=1;align=center;verticalAlign=top;childLayout=stackLayout;horizontal=1;startSize=26;horizontalStack=0;resizeParent=1;resizeParentMax=0;resizeLast=0;collapsible=1;marginBottom=0;whiteSpace=wrap;html=1;" parent="WIyWlLk6GJQsqaUBKTNV-1" vertex="1">
          <mxGeometry x="-90" y="750" width="160" height="104" as="geometry" />
        </mxCell>
        <mxCell id="eDhgWXMWfAPKys8gNTX1-22" value="- data_uscita: Date" style="text;strokeColor=none;fillColor=none;align=left;verticalAlign=top;spacingLeft=4;spacingRight=4;overflow=hidden;rotatable=0;points=[[0,0.5],[1,0.5]];portConstraint=eastwest;whiteSpace=wrap;html=1;" parent="eDhgWXMWfAPKys8gNTX1-21" vertex="1">
          <mxGeometry y="26" width="160" height="44" as="geometry" />
        </mxCell>
        <mxCell id="eDhgWXMWfAPKys8gNTX1-23" value="" style="line;strokeWidth=1;fillColor=none;align=left;verticalAlign=middle;spacingTop=-1;spacingLeft=3;spacingRight=3;rotatable=0;labelPosition=right;points=[];portConstraint=eastwest;strokeColor=inherit;" parent="eDhgWXMWfAPKys8gNTX1-21" vertex="1">
          <mxGeometry y="70" width="160" height="8" as="geometry" />
        </mxCell>
        <mxCell id="eDhgWXMWfAPKys8gNTX1-24" value="+ getData(): Date" style="text;strokeColor=none;fillColor=none;align=left;verticalAlign=top;spacingLeft=4;spacingRight=4;overflow=hidden;rotatable=0;points=[[0,0.5],[1,0.5]];portConstraint=eastwest;whiteSpace=wrap;html=1;" parent="eDhgWXMWfAPKys8gNTX1-21" vertex="1">
          <mxGeometry y="78" width="160" height="26" as="geometry" />
        </mxCell>
        <mxCell id="eDhgWXMWfAPKys8gNTX1-25" value="" style="endArrow=none;html=1;rounded=0;exitX=0.5;exitY=0;exitDx=0;exitDy=0;" parent="WIyWlLk6GJQsqaUBKTNV-1" edge="1">
          <mxGeometry width="50" height="50" relative="1" as="geometry">
            <mxPoint x="250" y="750" as="sourcePoint" />
            <mxPoint x="250" y="700" as="targetPoint" />
          </mxGeometry>
        </mxCell>
        <mxCell id="eDhgWXMWfAPKys8gNTX1-26" value="Ordine_Entrata" style="swimlane;fontStyle=1;align=center;verticalAlign=top;childLayout=stackLayout;horizontal=1;startSize=26;horizontalStack=0;resizeParent=1;resizeParentMax=0;resizeLast=0;collapsible=1;marginBottom=0;whiteSpace=wrap;html=1;" parent="WIyWlLk6GJQsqaUBKTNV-1" vertex="1">
          <mxGeometry x="170" y="750" width="250" height="152" as="geometry" />
        </mxCell>
        <mxCell id="eDhgWXMWfAPKys8gNTX1-27" value="- dataRicezione: string&lt;div&gt;- checkDanno: boolean&lt;/div&gt;&lt;div&gt;- checkDocumento: boolean&lt;/div&gt;" style="text;strokeColor=none;fillColor=none;align=left;verticalAlign=top;spacingLeft=4;spacingRight=4;overflow=hidden;rotatable=0;points=[[0,0.5],[1,0.5]];portConstraint=eastwest;whiteSpace=wrap;html=1;" parent="eDhgWXMWfAPKys8gNTX1-26" vertex="1">
          <mxGeometry y="26" width="250" height="44" as="geometry" />
        </mxCell>
        <mxCell id="eDhgWXMWfAPKys8gNTX1-28" value="" style="line;strokeWidth=1;fillColor=none;align=left;verticalAlign=middle;spacingTop=-1;spacingLeft=3;spacingRight=3;rotatable=0;labelPosition=right;points=[];portConstraint=eastwest;strokeColor=inherit;" parent="eDhgWXMWfAPKys8gNTX1-26" vertex="1">
          <mxGeometry y="70" width="250" height="20" as="geometry" />
        </mxCell>
        <mxCell id="eDhgWXMWfAPKys8gNTX1-29" value="+ getData(): Date&lt;div&gt;+ controlloDanni(): String&lt;/div&gt;&lt;div&gt;+ ControlloDocumentiTrasporto: String&lt;/div&gt;" style="text;strokeColor=none;fillColor=none;align=left;verticalAlign=top;spacingLeft=4;spacingRight=4;overflow=hidden;rotatable=0;points=[[0,0.5],[1,0.5]];portConstraint=eastwest;whiteSpace=wrap;html=1;" parent="eDhgWXMWfAPKys8gNTX1-26" vertex="1">
          <mxGeometry y="90" width="250" height="62" as="geometry" />
        </mxCell>
        <mxCell id="eDhgWXMWfAPKys8gNTX1-34" value="DDT" style="swimlane;fontStyle=1;align=center;verticalAlign=top;childLayout=stackLayout;horizontal=1;startSize=26;horizontalStack=0;resizeParent=1;resizeParentMax=0;resizeLast=0;collapsible=1;marginBottom=0;whiteSpace=wrap;html=1;" parent="WIyWlLk6GJQsqaUBKTNV-1" vertex="1">
          <mxGeometry x="329" y="421" width="160" height="124" as="geometry" />
        </mxCell>
        <mxCell id="eDhgWXMWfAPKys8gNTX1-35" value="- numero: int&lt;div&gt;- data: Date&lt;/div&gt;&lt;div&gt;&lt;br&gt;&lt;/div&gt;" style="text;strokeColor=none;fillColor=none;align=left;verticalAlign=top;spacingLeft=4;spacingRight=4;overflow=hidden;rotatable=0;points=[[0,0.5],[1,0.5]];portConstraint=eastwest;whiteSpace=wrap;html=1;" parent="eDhgWXMWfAPKys8gNTX1-34" vertex="1">
          <mxGeometry y="26" width="160" height="64" as="geometry" />
        </mxCell>
        <mxCell id="eDhgWXMWfAPKys8gNTX1-36" value="" style="line;strokeWidth=1;fillColor=none;align=left;verticalAlign=middle;spacingTop=-1;spacingLeft=3;spacingRight=3;rotatable=0;labelPosition=right;points=[];portConstraint=eastwest;strokeColor=inherit;" parent="eDhgWXMWfAPKys8gNTX1-34" vertex="1">
          <mxGeometry y="90" width="160" height="8" as="geometry" />
        </mxCell>
        <mxCell id="eDhgWXMWfAPKys8gNTX1-37" value="+&amp;nbsp; getDettagli(): String" style="text;strokeColor=none;fillColor=none;align=left;verticalAlign=top;spacingLeft=4;spacingRight=4;overflow=hidden;rotatable=0;points=[[0,0.5],[1,0.5]];portConstraint=eastwest;whiteSpace=wrap;html=1;" parent="eDhgWXMWfAPKys8gNTX1-34" vertex="1">
          <mxGeometry y="98" width="160" height="26" as="geometry" />
        </mxCell>
        <mxCell id="eDhgWXMWfAPKys8gNTX1-38" value="Cliente" style="swimlane;fontStyle=1;align=center;verticalAlign=top;childLayout=stackLayout;horizontal=1;startSize=26;horizontalStack=0;resizeParent=1;resizeParentMax=0;resizeLast=0;collapsible=1;marginBottom=0;whiteSpace=wrap;html=1;" parent="WIyWlLk6GJQsqaUBKTNV-1" vertex="1">
          <mxGeometry x="330" y="140" width="160" height="210" as="geometry" />
        </mxCell>
        <mxCell id="eDhgWXMWfAPKys8gNTX1-39" value="- nome: string&lt;div&gt;- cognome: string&lt;/div&gt;&lt;div&gt;&lt;div&gt;- indirizzo: string&lt;/div&gt;&lt;div&gt;- città: string&lt;/div&gt;&lt;div&gt;- email: string&lt;/div&gt;&lt;div&gt;- CAP: string&lt;/div&gt;&lt;div&gt;- partitaIVA: string&lt;/div&gt;&lt;/div&gt;&lt;div&gt;- provincia: string&lt;/div&gt;" style="text;strokeColor=none;fillColor=none;align=left;verticalAlign=top;spacingLeft=4;spacingRight=4;overflow=hidden;rotatable=0;points=[[0,0.5],[1,0.5]];portConstraint=eastwest;whiteSpace=wrap;html=1;" parent="eDhgWXMWfAPKys8gNTX1-38" vertex="1">
          <mxGeometry y="26" width="160" height="134" as="geometry" />
        </mxCell>
        <mxCell id="eDhgWXMWfAPKys8gNTX1-40" value="" style="line;strokeWidth=1;fillColor=none;align=left;verticalAlign=middle;spacingTop=-1;spacingLeft=3;spacingRight=3;rotatable=0;labelPosition=right;points=[];portConstraint=eastwest;strokeColor=inherit;" parent="eDhgWXMWfAPKys8gNTX1-38" vertex="1">
          <mxGeometry y="160" width="160" height="8" as="geometry" />
        </mxCell>
        <mxCell id="eDhgWXMWfAPKys8gNTX1-41" value="+ getInfo(): String" style="text;strokeColor=none;fillColor=none;align=left;verticalAlign=top;spacingLeft=4;spacingRight=4;overflow=hidden;rotatable=0;points=[[0,0.5],[1,0.5]];portConstraint=eastwest;whiteSpace=wrap;html=1;" parent="eDhgWXMWfAPKys8gNTX1-38" vertex="1">
          <mxGeometry y="168" width="160" height="42" as="geometry" />
        </mxCell>
        <mxCell id="eDhgWXMWfAPKys8gNTX1-42" value="" style="endArrow=block;endFill=1;html=1;edgeStyle=orthogonalEdgeStyle;align=left;verticalAlign=top;rounded=0;exitX=0.999;exitY=0.537;exitDx=0;exitDy=0;exitPerimeter=0;entryX=0.006;entryY=0.162;entryDx=0;entryDy=0;entryPerimeter=0;" parent="WIyWlLk6GJQsqaUBKTNV-1" source="eDhgWXMWfAPKys8gNTX1-7" target="eDhgWXMWfAPKys8gNTX1-34" edge="1">
          <mxGeometry x="-0.4024" y="11" relative="1" as="geometry">
            <mxPoint x="260" y="491.76" as="sourcePoint" />
            <mxPoint x="310" y="450" as="targetPoint" />
            <mxPoint as="offset" />
          </mxGeometry>
        </mxCell>
        <mxCell id="eDhgWXMWfAPKys8gNTX1-43" value="1" style="edgeLabel;resizable=0;html=1;align=left;verticalAlign=bottom;" parent="eDhgWXMWfAPKys8gNTX1-42" connectable="0" vertex="1">
          <mxGeometry x="-1" relative="1" as="geometry" />
        </mxCell>
        <mxCell id="eDhgWXMWfAPKys8gNTX1-45" value="1" style="edgeLabel;resizable=0;html=1;align=left;verticalAlign=bottom;" parent="WIyWlLk6GJQsqaUBKTNV-1" connectable="0" vertex="1">
          <mxGeometry x="320" y="505.00399999999996" as="geometry" />
        </mxCell>
        <mxCell id="eDhgWXMWfAPKys8gNTX1-48" value="" style="endArrow=block;endFill=1;html=1;edgeStyle=orthogonalEdgeStyle;align=left;verticalAlign=top;rounded=0;entryX=0.493;entryY=0.974;entryDx=0;entryDy=0;entryPerimeter=0;exitX=0.5;exitY=0;exitDx=0;exitDy=0;" parent="WIyWlLk6GJQsqaUBKTNV-1" source="eDhgWXMWfAPKys8gNTX1-34" edge="1">
          <mxGeometry x="0.2095" y="19" relative="1" as="geometry">
            <mxPoint x="410.29999999999995" y="416.48" as="sourcePoint" />
            <mxPoint x="409.18000000000006" y="349.804" as="targetPoint" />
            <Array as="points">
              <mxPoint x="410" y="417" />
              <mxPoint x="409" y="417" />
            </Array>
            <mxPoint as="offset" />
          </mxGeometry>
        </mxCell>
        <mxCell id="eDhgWXMWfAPKys8gNTX1-49" value="1...*" style="edgeLabel;resizable=0;html=1;align=left;verticalAlign=bottom;" parent="eDhgWXMWfAPKys8gNTX1-48" connectable="0" vertex="1">
          <mxGeometry x="-1" relative="1" as="geometry">
            <mxPoint y="-9" as="offset" />
          </mxGeometry>
        </mxCell>
        <mxCell id="eDhgWXMWfAPKys8gNTX1-50" value="1" style="edgeLabel;resizable=0;html=1;align=left;verticalAlign=bottom;" parent="WIyWlLk6GJQsqaUBKTNV-1" connectable="0" vertex="1">
          <mxGeometry x="420" y="380" as="geometry">
            <mxPoint x="-4" y="2" as="offset" />
          </mxGeometry>
        </mxCell>
        <mxCell id="eDhgWXMWfAPKys8gNTX1-53" value="Articolo" style="swimlane;fontStyle=1;align=center;verticalAlign=top;childLayout=stackLayout;horizontal=1;startSize=26;horizontalStack=0;resizeParent=1;resizeParentMax=0;resizeLast=0;collapsible=1;marginBottom=0;whiteSpace=wrap;html=1;" parent="WIyWlLk6GJQsqaUBKTNV-1" vertex="1">
          <mxGeometry x="-230" y="141" width="250" height="270" as="geometry" />
        </mxCell>
        <mxCell id="eDhgWXMWfAPKys8gNTX1-54" value="- nome: String&lt;div&gt;- ID_articolo: String&lt;/div&gt;&lt;div&gt;- spazioOccupato: float&lt;/div&gt;&lt;div&gt;- peso: float&lt;/div&gt;&lt;div&gt;- prezzo: float&lt;/div&gt;" style="text;strokeColor=none;fillColor=none;align=left;verticalAlign=top;spacingLeft=4;spacingRight=4;overflow=hidden;rotatable=0;points=[[0,0.5],[1,0.5]];portConstraint=eastwest;whiteSpace=wrap;html=1;" parent="eDhgWXMWfAPKys8gNTX1-53" vertex="1">
          <mxGeometry y="26" width="250" height="84" as="geometry" />
        </mxCell>
        <mxCell id="eDhgWXMWfAPKys8gNTX1-55" value="" style="line;strokeWidth=1;fillColor=none;align=left;verticalAlign=middle;spacingTop=-1;spacingLeft=3;spacingRight=3;rotatable=0;labelPosition=right;points=[];portConstraint=eastwest;strokeColor=inherit;" parent="eDhgWXMWfAPKys8gNTX1-53" vertex="1">
          <mxGeometry y="110" width="250" height="8" as="geometry" />
        </mxCell>
        <mxCell id="eDhgWXMWfAPKys8gNTX1-61" style="edgeStyle=orthogonalEdgeStyle;rounded=0;orthogonalLoop=1;jettySize=auto;html=1;exitX=1;exitY=0.5;exitDx=0;exitDy=0;" parent="eDhgWXMWfAPKys8gNTX1-53" source="eDhgWXMWfAPKys8gNTX1-54" target="eDhgWXMWfAPKys8gNTX1-54" edge="1">
          <mxGeometry relative="1" as="geometry" />
        </mxCell>
        <mxCell id="eDhgWXMWfAPKys8gNTX1-56" value="+ getInfoArticoli(): String&lt;div&gt;+ getPrezzo(): float&lt;/div&gt;&lt;div&gt;+ getDimensioneSpazioOccupato():&lt;/div&gt;&lt;div&gt;+ getPeso(): float&lt;/div&gt;&lt;div&gt;&lt;span style=&quot;background-color: transparent; color: light-dark(rgb(0, 0, 0), rgb(255, 255, 255));&quot;&gt;+ setInfoArticoli(string nome; string ID)&lt;/span&gt;&lt;/div&gt;&lt;div&gt;&lt;span style=&quot;background-color: transparent; color: light-dark(rgb(0, 0, 0), rgb(255, 255, 255));&quot;&gt;+ setPrezzo(float prezzo)&lt;/span&gt;&lt;/div&gt;&lt;div&gt;&lt;span style=&quot;background-color: transparent; color: light-dark(rgb(0, 0, 0), rgb(255, 255, 255));&quot;&gt;+ setSpazioOccupato(float spazioOccupato)&lt;/span&gt;&lt;/div&gt;&lt;div&gt;&lt;span style=&quot;background-color: transparent; color: light-dark(rgb(0, 0, 0), rgb(255, 255, 255));&quot;&gt;+ setPeso(float peso)&lt;/span&gt;&lt;/div&gt;&lt;div&gt;&lt;br&gt;&lt;/div&gt;&lt;div&gt;&lt;br&gt;&lt;/div&gt;" style="text;strokeColor=none;fillColor=none;align=left;verticalAlign=top;spacingLeft=4;spacingRight=4;overflow=hidden;rotatable=0;points=[[0,0.5],[1,0.5]];portConstraint=eastwest;whiteSpace=wrap;html=1;" parent="eDhgWXMWfAPKys8gNTX1-53" vertex="1">
          <mxGeometry y="118" width="250" height="152" as="geometry" />
        </mxCell>
        <mxCell id="eDhgWXMWfAPKys8gNTX1-57" value="Stock" style="swimlane;fontStyle=1;align=center;verticalAlign=top;childLayout=stackLayout;horizontal=1;startSize=26;horizontalStack=0;resizeParent=1;resizeParentMax=0;resizeLast=0;collapsible=1;marginBottom=0;whiteSpace=wrap;html=1;" parent="WIyWlLk6GJQsqaUBKTNV-1" vertex="1">
          <mxGeometry x="-518" y="460" width="160" height="170" as="geometry" />
        </mxCell>
        <mxCell id="eDhgWXMWfAPKys8gNTX1-58" value="- categoria: String&lt;div&gt;- numero: int&lt;/div&gt;&lt;div&gt;- spazioLiberoTotale: float&lt;/div&gt;&lt;div&gt;- spazioOccupato: float&lt;/div&gt;" style="text;strokeColor=none;fillColor=none;align=left;verticalAlign=top;spacingLeft=4;spacingRight=4;overflow=hidden;rotatable=0;points=[[0,0.5],[1,0.5]];portConstraint=eastwest;whiteSpace=wrap;html=1;" parent="eDhgWXMWfAPKys8gNTX1-57" vertex="1">
          <mxGeometry y="26" width="160" height="74" as="geometry" />
        </mxCell>
        <mxCell id="eDhgWXMWfAPKys8gNTX1-59" value="" style="line;strokeWidth=1;fillColor=none;align=left;verticalAlign=middle;spacingTop=-1;spacingLeft=3;spacingRight=3;rotatable=0;labelPosition=right;points=[];portConstraint=eastwest;strokeColor=inherit;" parent="eDhgWXMWfAPKys8gNTX1-57" vertex="1">
          <mxGeometry y="100" width="160" height="10" as="geometry" />
        </mxCell>
        <mxCell id="eDhgWXMWfAPKys8gNTX1-60" value="+ setSpazioOccupato(float)&lt;div&gt;+ liberaStock()&lt;/div&gt;&lt;div&gt;+ getInfo(): String&lt;/div&gt;" style="text;strokeColor=none;fillColor=none;align=left;verticalAlign=top;spacingLeft=4;spacingRight=4;overflow=hidden;rotatable=0;points=[[0,0.5],[1,0.5]];portConstraint=eastwest;whiteSpace=wrap;html=1;" parent="eDhgWXMWfAPKys8gNTX1-57" vertex="1">
          <mxGeometry y="110" width="160" height="60" as="geometry" />
        </mxCell>
        <mxCell id="eDhgWXMWfAPKys8gNTX1-68" value="ArticoliStock" style="swimlane;fontStyle=1;align=center;verticalAlign=top;childLayout=stackLayout;horizontal=1;startSize=26;horizontalStack=0;resizeParent=1;resizeParentMax=0;resizeLast=0;collapsible=1;marginBottom=0;whiteSpace=wrap;html=1;" parent="WIyWlLk6GJQsqaUBKTNV-1" vertex="1">
          <mxGeometry x="-520" y="169" width="160" height="140" as="geometry" />
        </mxCell>
        <mxCell id="eDhgWXMWfAPKys8gNTX1-69" value="- quantità: int" style="text;strokeColor=none;fillColor=none;align=left;verticalAlign=top;spacingLeft=4;spacingRight=4;overflow=hidden;rotatable=0;points=[[0,0.5],[1,0.5]];portConstraint=eastwest;whiteSpace=wrap;html=1;" parent="eDhgWXMWfAPKys8gNTX1-68" vertex="1">
          <mxGeometry y="26" width="160" height="64" as="geometry" />
        </mxCell>
        <mxCell id="eDhgWXMWfAPKys8gNTX1-70" value="" style="line;strokeWidth=1;fillColor=none;align=left;verticalAlign=middle;spacingTop=-1;spacingLeft=3;spacingRight=3;rotatable=0;labelPosition=right;points=[];portConstraint=eastwest;strokeColor=inherit;" parent="eDhgWXMWfAPKys8gNTX1-68" vertex="1">
          <mxGeometry y="90" width="160" height="8" as="geometry" />
        </mxCell>
        <mxCell id="eDhgWXMWfAPKys8gNTX1-71" value="+ calcolaSpazioOccupato(): float" style="text;strokeColor=none;fillColor=none;align=left;verticalAlign=top;spacingLeft=4;spacingRight=4;overflow=hidden;rotatable=0;points=[[0,0.5],[1,0.5]];portConstraint=eastwest;whiteSpace=wrap;html=1;" parent="eDhgWXMWfAPKys8gNTX1-68" vertex="1">
          <mxGeometry y="98" width="160" height="42" as="geometry" />
        </mxCell>
        <mxCell id="eDhgWXMWfAPKys8gNTX1-72" value="ArticoliDellOrdine" style="swimlane;fontStyle=1;align=center;verticalAlign=top;childLayout=stackLayout;horizontal=1;startSize=26;horizontalStack=0;resizeParent=1;resizeParentMax=0;resizeLast=0;collapsible=1;marginBottom=0;whiteSpace=wrap;html=1;" parent="WIyWlLk6GJQsqaUBKTNV-1" vertex="1">
          <mxGeometry x="-200" y="470" width="160" height="150" as="geometry" />
        </mxCell>
        <mxCell id="eDhgWXMWfAPKys8gNTX1-73" value="- quantità: int" style="text;strokeColor=none;fillColor=none;align=left;verticalAlign=top;spacingLeft=4;spacingRight=4;overflow=hidden;rotatable=0;points=[[0,0.5],[1,0.5]];portConstraint=eastwest;whiteSpace=wrap;html=1;" parent="eDhgWXMWfAPKys8gNTX1-72" vertex="1">
          <mxGeometry y="26" width="160" height="44" as="geometry" />
        </mxCell>
        <mxCell id="eDhgWXMWfAPKys8gNTX1-74" value="" style="line;strokeWidth=1;fillColor=none;align=left;verticalAlign=middle;spacingTop=-1;spacingLeft=3;spacingRight=3;rotatable=0;labelPosition=right;points=[];portConstraint=eastwest;strokeColor=inherit;" parent="eDhgWXMWfAPKys8gNTX1-72" vertex="1">
          <mxGeometry y="70" width="160" height="8" as="geometry" />
        </mxCell>
        <mxCell id="eDhgWXMWfAPKys8gNTX1-75" value="&lt;div&gt;+getArticolo(): Articolo&lt;/div&gt;&lt;div&gt;+setArticolo(Articolo)&lt;/div&gt;&lt;div&gt;+setQuantita(int)&lt;/div&gt;&lt;div&gt;+getQuantita: int&lt;/div&gt;" style="text;strokeColor=none;fillColor=none;align=left;verticalAlign=top;spacingLeft=4;spacingRight=4;overflow=hidden;rotatable=0;points=[[0,0.5],[1,0.5]];portConstraint=eastwest;whiteSpace=wrap;html=1;" parent="eDhgWXMWfAPKys8gNTX1-72" vertex="1">
          <mxGeometry y="78" width="160" height="72" as="geometry" />
        </mxCell>
        <mxCell id="eDhgWXMWfAPKys8gNTX1-78" value="" style="endArrow=block;startArrow=block;endFill=1;startFill=1;html=1;rounded=0;" parent="WIyWlLk6GJQsqaUBKTNV-1" edge="1">
          <mxGeometry width="160" relative="1" as="geometry">
            <mxPoint x="-40" y="500" as="sourcePoint" />
            <mxPoint x="40" y="500" as="targetPoint" />
          </mxGeometry>
        </mxCell>
        <mxCell id="eDhgWXMWfAPKys8gNTX1-81" value="" style="endArrow=block;startArrow=block;endFill=1;startFill=1;html=1;rounded=0;entryX=0.514;entryY=0.981;entryDx=0;entryDy=0;entryPerimeter=0;exitX=0.5;exitY=0;exitDx=0;exitDy=0;" parent="WIyWlLk6GJQsqaUBKTNV-1" source="eDhgWXMWfAPKys8gNTX1-57" target="eDhgWXMWfAPKys8gNTX1-71" edge="1">
          <mxGeometry width="160" relative="1" as="geometry">
            <mxPoint x="-510" y="420" as="sourcePoint" />
            <mxPoint x="-350" y="420" as="targetPoint" />
          </mxGeometry>
        </mxCell>
        <mxCell id="eDhgWXMWfAPKys8gNTX1-83" value="&lt;span style=&quot;color: rgb(0, 0, 0); font-family: Helvetica; font-size: 11px; font-style: normal; font-variant-ligatures: normal; font-variant-caps: normal; font-weight: 400; letter-spacing: normal; orphans: 2; text-align: left; text-indent: 0px; text-transform: none; widows: 2; word-spacing: 0px; -webkit-text-stroke-width: 0px; white-space: nowrap; background-color: rgb(255, 255, 255); text-decoration-thickness: initial; text-decoration-style: initial; text-decoration-color: initial; display: inline !important; float: none;&quot;&gt;1...*&lt;/span&gt;" style="text;whiteSpace=wrap;html=1;" parent="WIyWlLk6GJQsqaUBKTNV-1" vertex="1">
          <mxGeometry x="-40" y="470" width="40" height="40" as="geometry" />
        </mxCell>
        <mxCell id="eDhgWXMWfAPKys8gNTX1-84" value="&lt;span style=&quot;color: rgb(0, 0, 0); font-family: Helvetica; font-size: 11px; font-style: normal; font-variant-ligatures: normal; font-variant-caps: normal; font-weight: 400; letter-spacing: normal; orphans: 2; text-align: left; text-indent: 0px; text-transform: none; widows: 2; word-spacing: 0px; -webkit-text-stroke-width: 0px; white-space: nowrap; background-color: rgb(255, 255, 255); text-decoration-thickness: initial; text-decoration-style: initial; text-decoration-color: initial; display: inline !important; float: none;&quot;&gt;&amp;nbsp; &amp;nbsp; &amp;nbsp;1&amp;nbsp;&lt;/span&gt;" style="text;whiteSpace=wrap;html=1;" parent="WIyWlLk6GJQsqaUBKTNV-1" vertex="1">
          <mxGeometry x="10" y="500" width="40" height="40" as="geometry" />
        </mxCell>
        <mxCell id="eDhgWXMWfAPKys8gNTX1-85" value="Corriere" style="swimlane;fontStyle=1;align=center;verticalAlign=top;childLayout=stackLayout;horizontal=1;startSize=26;horizontalStack=0;resizeParent=1;resizeParentMax=0;resizeLast=0;collapsible=1;marginBottom=0;whiteSpace=wrap;html=1;" parent="WIyWlLk6GJQsqaUBKTNV-1" vertex="1">
          <mxGeometry x="-390" y="738" width="160" height="114" as="geometry" />
        </mxCell>
        <mxCell id="eDhgWXMWfAPKys8gNTX1-86" value="- nomeSocietà: String&lt;div&gt;- nomePersona: String&lt;/div&gt;&lt;div&gt;- ID_track: String&lt;/div&gt;" style="text;strokeColor=none;fillColor=none;align=left;verticalAlign=top;spacingLeft=4;spacingRight=4;overflow=hidden;rotatable=0;points=[[0,0.5],[1,0.5]];portConstraint=eastwest;whiteSpace=wrap;html=1;" parent="eDhgWXMWfAPKys8gNTX1-85" vertex="1">
          <mxGeometry y="26" width="160" height="54" as="geometry" />
        </mxCell>
        <mxCell id="eDhgWXMWfAPKys8gNTX1-87" value="" style="line;strokeWidth=1;fillColor=none;align=left;verticalAlign=middle;spacingTop=-1;spacingLeft=3;spacingRight=3;rotatable=0;labelPosition=right;points=[];portConstraint=eastwest;strokeColor=inherit;" parent="eDhgWXMWfAPKys8gNTX1-85" vertex="1">
          <mxGeometry y="80" width="160" height="8" as="geometry" />
        </mxCell>
        <mxCell id="eDhgWXMWfAPKys8gNTX1-88" value="+ getInfo(): String" style="text;strokeColor=none;fillColor=none;align=left;verticalAlign=top;spacingLeft=4;spacingRight=4;overflow=hidden;rotatable=0;points=[[0,0.5],[1,0.5]];portConstraint=eastwest;whiteSpace=wrap;html=1;" parent="eDhgWXMWfAPKys8gNTX1-85" vertex="1">
          <mxGeometry y="88" width="160" height="26" as="geometry" />
        </mxCell>
        <mxCell id="eDhgWXMWfAPKys8gNTX1-90" value="" style="endArrow=block;startArrow=block;endFill=1;startFill=1;html=1;rounded=0;exitX=1.003;exitY=0.657;exitDx=0;exitDy=0;exitPerimeter=0;" parent="WIyWlLk6GJQsqaUBKTNV-1" source="eDhgWXMWfAPKys8gNTX1-86" edge="1">
          <mxGeometry width="160" relative="1" as="geometry">
            <mxPoint x="-200" y="800" as="sourcePoint" />
            <mxPoint x="-90" y="800" as="targetPoint" />
          </mxGeometry>
        </mxCell>
        <mxCell id="eDhgWXMWfAPKys8gNTX1-91" value="" style="endArrow=block;startArrow=block;endFill=1;startFill=1;html=1;rounded=0;entryX=0.497;entryY=0.995;entryDx=0;entryDy=0;entryPerimeter=0;" parent="WIyWlLk6GJQsqaUBKTNV-1" target="eDhgWXMWfAPKys8gNTX1-56" edge="1">
          <mxGeometry width="160" relative="1" as="geometry">
            <mxPoint x="-106" y="470" as="sourcePoint" />
            <mxPoint x="40" y="400" as="targetPoint" />
          </mxGeometry>
        </mxCell>
        <mxCell id="eDhgWXMWfAPKys8gNTX1-92" value="&lt;span style=&quot;color: rgb(0, 0, 0); font-family: Helvetica; font-size: 11px; font-style: normal; font-variant-ligatures: normal; font-variant-caps: normal; font-weight: 400; letter-spacing: normal; orphans: 2; text-align: left; text-indent: 0px; text-transform: none; widows: 2; word-spacing: 0px; -webkit-text-stroke-width: 0px; white-space: nowrap; background-color: rgb(255, 255, 255); text-decoration-thickness: initial; text-decoration-style: initial; text-decoration-color: initial; display: inline !important; float: none;&quot;&gt;1&lt;/span&gt;" style="text;whiteSpace=wrap;html=1;" parent="WIyWlLk6GJQsqaUBKTNV-1" vertex="1">
          <mxGeometry x="-100" y="440" width="40" height="40" as="geometry" />
        </mxCell>
        <mxCell id="eDhgWXMWfAPKys8gNTX1-93" value="&lt;span style=&quot;font-size: 11px; text-wrap-mode: nowrap; background-color: rgb(255, 255, 255);&quot;&gt;0...*&lt;br&gt;&lt;/span&gt;" style="text;whiteSpace=wrap;html=1;" parent="WIyWlLk6GJQsqaUBKTNV-1" vertex="1">
          <mxGeometry x="-100" y="412" width="40" height="58" as="geometry" />
        </mxCell>
        <mxCell id="eDhgWXMWfAPKys8gNTX1-94" value="" style="endArrow=block;startArrow=block;endFill=1;startFill=1;html=1;rounded=0;exitX=1.014;exitY=0.227;exitDx=0;exitDy=0;exitPerimeter=0;entryX=0;entryY=0.5;entryDx=0;entryDy=0;" parent="WIyWlLk6GJQsqaUBKTNV-1" source="eDhgWXMWfAPKys8gNTX1-69" target="eDhgWXMWfAPKys8gNTX1-54" edge="1">
          <mxGeometry width="160" relative="1" as="geometry">
            <mxPoint x="-329" y="330" as="sourcePoint" />
            <mxPoint x="-330" y="220" as="targetPoint" />
          </mxGeometry>
        </mxCell>
        <mxCell id="mtax6_YzFWXm8HUX0Qrl-0" value="&lt;font style=&quot;font-size: 36px;&quot;&gt;Diagramma UML delle classi del codice di &quot;Gestionex&quot; in C++&lt;/font&gt;" style="rounded=0;whiteSpace=wrap;html=1;" parent="WIyWlLk6GJQsqaUBKTNV-1" vertex="1">
          <mxGeometry x="-555" y="40" width="1090" height="60" as="geometry" />
        </mxCell>
      </root>
    </mxGraphModel>
  </diagram>
</mxfile>
